<?xml version="1.0" standalone="no"?>
<!DOCTYPE svg PUBLIC "-//W3C//DTD SVG 20010904//EN"
 "http://www.w3.org/TR/2001/REC-SVG-20010904/DTD/svg10.dtd">
<svg version="1.0" xmlns="http://www.w3.org/2000/svg"
 width="512.000000pt" height="512.000000pt" viewBox="0 0 512.000000 512.000000"
 preserveAspectRatio="xMidYMid meet">

<g transform="translate(0.000000,512.000000) scale(0.100000,-0.100000)"
fill="#f5f5f5" stroke="none">
<path d="M775 5111 c-101 -26 -187 -97 -231 -194 l-29 -62 0 -2295 0 -2295 29
-62 c33 -73 103 -143 173 -176 l48 -22 1795 0 1795 0 48 22 c70 33 140 103
173 176 l29 62 0 2085 0 2085 -24 45 c-33 64 -537 569 -605 607 l-51 28 -1560
2 c-858 0 -1573 -2 -1590 -6z m3067 -333 c4 -150 7 -179 26 -221 32 -70 102
-140 175 -173 59 -27 71 -29 230 -32 l167 -4 0 -2017 c0 -1935 -1 -2018 -19
-2056 -22 -48 -44 -69 -94 -90 -32 -13 -232 -15 -1769 -15 -1660 0 -1735 1
-1773 19 -48 22 -69 44 -90 94 -13 32 -15 283 -15 2277 0 1994 2 2245 15 2277
21 50 42 72 90 94 38 18 106 19 1547 19 l1506 0 4 -172z m401 -256 c-163 -8
-232 59 -233 223 l0 80 150 -150 150 -150 -67 -3z"/>
<path d="M2190 4258 c-14 -5 -63 -47 -110 -94 l-86 -85 -24 27 c-14 15 -47 37
-75 50 -49 23 -55 24 -360 24 -304 0 -311 -1 -360 -24 -28 -12 -65 -40 -84
-61 -66 -75 -66 -77 -66 -420 0 -276 2 -315 18 -357 22 -58 98 -129 155 -146
26 -8 136 -12 339 -12 336 0 363 4 427 66 20 19 46 54 59 77 21 40 22 54 25
317 l3 275 125 126 c111 113 124 129 124 161 0 56 -57 95 -110 76z m-343 -273
l28 -24 -127 -128 -127 -127 -70 67 c-73 70 -92 78 -140 52 -32 -16 -41 -33
-41 -78 0 -26 17 -48 108 -139 144 -144 139 -144 282 -3 58 58 109 105 113
105 4 0 7 -72 7 -159 0 -157 0 -160 -26 -190 l-26 -31 -288 0 -289 0 -28 24
-28 24 0 292 0 292 28 24 28 24 284 0 284 0 28 -25z"/>
<path d="M2506 3988 c-38 -35 -39 -86 -1 -123 l24 -25 755 0 755 0 26 23 c39
33 39 91 1 123 l-27 24 -754 0 -754 0 -25 -22z"/>
<path d="M2502 3557 c-22 -23 -29 -68 -16 -102 17 -43 40 -45 501 -45 473 0
476 1 501 54 16 32 9 69 -18 96 -19 19 -35 20 -483 20 l-464 0 -21 -23z"/>
<path d="M1223 2981 c-57 -15 -124 -61 -153 -108 -46 -72 -52 -125 -48 -436 3
-252 5 -286 22 -317 34 -64 63 -95 117 -125 l54 -30 320 0 c315 0 321 0 367
23 61 30 114 93 133 156 22 72 22 590 0 662 -19 63 -71 125 -132 155 -47 24
-54 24 -348 26 -165 1 -314 -2 -332 -6z m596 -172 c58 -20 61 -39 61 -333 0
-286 -3 -307 -51 -332 -42 -21 -547 -20 -589 1 -44 23 -50 63 -50 330 0 274 6
310 53 330 41 18 526 21 576 4z"/>
<path d="M2524 2806 c-51 -22 -62 -95 -21 -134 l23 -22 760 0 761 0 20 23 c29
32 34 52 21 88 -21 60 -4 59 -805 59 -588 -1 -734 -3 -759 -14z"/>
<path d="M2505 2365 c-38 -37 -37 -88 1 -122 l25 -23 455 0 456 0 29 29 c17
18 29 40 29 56 0 16 -12 38 -29 56 l-29 29 -457 0 -456 0 -24 -25z"/>
<path d="M1175 1766 c-55 -25 -108 -79 -134 -135 -24 -54 -24 -648 0 -702 26
-56 79 -110 134 -135 49 -23 57 -24 354 -24 204 0 317 4 343 12 50 15 122 78
151 132 21 40 22 50 22 366 0 314 -1 326 -22 365 -12 22 -39 57 -60 77 -67 65
-88 68 -432 68 -299 0 -307 -1 -356 -24z m672 -170 l28 -24 0 -292 0 -292 -28
-24 -28 -24 -284 0 -284 0 -28 24 -28 24 0 292 0 292 28 24 28 24 284 0 284 0
28 -24z"/>
<path d="M2506 1598 c-38 -35 -39 -86 -1 -123 l24 -25 751 0 c519 0 758 3 772
11 29 15 50 72 39 103 -23 59 14 56 -808 56 l-752 0 -25 -22z"/>
<path d="M2502 1167 c-23 -25 -29 -75 -12 -107 20 -37 60 -40 497 -40 348 0
430 3 458 15 40 16 59 54 50 97 -13 59 -6 58 -510 58 l-462 0 -21 -23z"/>
</g>
</svg>
