<?xml version="1.0" standalone="no"?>
<!DOCTYPE svg PUBLIC "-//W3C//DTD SVG 20010904//EN"
 "http://www.w3.org/TR/2001/REC-SVG-20010904/DTD/svg10.dtd">
<svg version="1.0" xmlns="http://www.w3.org/2000/svg"
 width="512.000000pt" height="512.000000pt" viewBox="0 0 512.000000 512.000000"
 preserveAspectRatio="xMidYMid meet">

<g transform="translate(0.000000,512.000000) scale(0.100000,-0.100000)"
fill="#f5f5f5" stroke="none">
<path d="M2365 5113 c-867 -71 -1623 -559 -2049 -1320 -451 -809 -413 -1852
98 -2627 369 -562 936 -958 1576 -1101 212 -48 321 -59 570 -59 249 0 354 11
570 59 867 193 1590 854 1864 1703 238 736 130 1552 -288 2186 -388 590 -993
996 -1670 1121 -210 38 -481 54 -671 38z m40 -371 c-38 -319 -160 -671 -325
-937 -55 -88 -199 -282 -234 -315 l-27 -24 -404 404 c-223 223 -405 408 -405
412 0 13 157 136 265 209 252 169 564 296 855 350 96 17 274 36 282 30 4 -3 0
-61 -7 -129z m533 107 c243 -41 425 -99 648 -209 672 -329 1143 -964 1263
-1702 11 -68 23 -158 26 -200 l7 -77 -34 -5 c-18 -2 -91 -11 -163 -20 -275
-33 -569 -122 -820 -249 -153 -77 -372 -223 -506 -339 -31 -26 -61 -48 -65
-48 -5 0 -135 126 -289 280 l-280 280 507 507 c400 402 507 515 513 540 18 88
-68 164 -150 133 -18 -6 -234 -215 -533 -513 l-502 -502 -282 283 c-219 218
-281 285 -273 296 6 8 41 52 78 98 303 370 497 820 553 1283 9 72 18 145 20
163 l5 33 82 -6 c45 -4 133 -16 195 -26z m-1688 -1144 l404 -404 -24 -27 c-33
-35 -227 -179 -315 -234 -192 -119 -472 -233 -704 -285 -107 -24 -349 -58
-361 -50 -8 5 14 207 34 308 57 291 180 588 348 837 71 105 194 260 206 260 4
0 189 -182 412 -405z m865 -865 l280 -280 -507 -507 c-400 -402 -507 -515
-513 -540 -18 -88 68 -164 150 -133 18 6 234 215 533 513 l502 502 282 -283
c220 -219 281 -285 273 -296 -6 -8 -44 -56 -86 -108 -298 -365 -489 -813 -545
-1273 -9 -72 -18 -145 -20 -163 l-5 -34 -77 7 c-728 61 -1372 444 -1772 1055
-76 116 -187 340 -235 473 -63 175 -114 414 -130 604 l-6 82 33 5 c18 2 91 11
163 20 299 36 619 138 880 281 147 80 351 221 460 318 22 20 45 36 50 37 6 0
136 -126 290 -280z m2757 -430 c4 -19 -16 -198 -32 -281 -59 -309 -179 -602
-352 -859 -71 -105 -194 -260 -206 -260 -4 0 -189 182 -412 405 l-404 404 20
22 c10 12 55 50 99 84 336 262 734 427 1155 480 106 13 130 14 132 5z m-1165
-1162 c222 -222 403 -406 403 -410 0 -12 -155 -135 -260 -206 -249 -168 -546
-291 -837 -348 -101 -20 -303 -42 -308 -34 -8 12 26 254 50 361 52 232 166
513 285 704 81 130 240 335 259 335 3 0 187 -181 408 -402z"/>
<path d="M3855 4012 c-41 -26 -55 -44 -62 -85 -16 -102 114 -178 189 -110 49
44 59 99 28 150 -36 59 -101 78 -155 45z"/>
<path d="M1160 1317 c-31 -16 -70 -73 -70 -104 0 -57 64 -123 118 -123 54 0
110 48 119 102 14 92 -85 167 -167 125z"/>
</g>
</svg>
