<?xml version="1.0" standalone="no"?>
<!DOCTYPE svg PUBLIC "-//W3C//DTD SVG 20010904//EN"
 "http://www.w3.org/TR/2001/REC-SVG-20010904/DTD/svg10.dtd">
<svg version="1.0" xmlns="http://www.w3.org/2000/svg"
 width="512.000000pt" height="512.000000pt" viewBox="0 0 512.000000 512.000000"
 preserveAspectRatio="xMidYMid meet">

<g transform="translate(0.000000,512.000000) scale(0.100000,-0.100000)"
fill="#f5f5f5" stroke="none">
<path d="M1157 4966 c-82 -30 -143 -91 -173 -173 -8 -24 -13 -85 -14 -165 l0
-128 -307 -1 c-209 0 -318 -4 -340 -12 -67 -25 -120 -73 -152 -139 l-31 -63 2
-1975 3 -1975 22 -41 c28 -53 74 -99 127 -127 l41 -22 2225 0 2225 0 41 22
c53 28 99 74 127 127 l22 41 3 1975 2 1975 -31 63 c-32 66 -85 114 -152 139
-22 8 -130 12 -339 12 l-306 1 -4 143 c-3 122 -6 148 -25 183 -49 92 -129 144
-234 152 -112 8 -207 -47 -258 -149 -30 -60 -31 -67 -31 -196 l0 -133 -1040 0
-1040 0 0 133 c0 111 -4 139 -21 177 -32 72 -65 106 -130 139 -70 35 -145 41
-212 17z m154 -141 c16 -9 39 -30 49 -48 19 -30 20 -52 20 -319 l0 -287 -31
-36 c-59 -67 -143 -69 -205 -4 l-29 30 -3 289 c-2 249 -1 294 13 320 32 63
120 88 186 55z m2636 -5 c62 -38 64 -49 61 -371 l-3 -291 -37 -33 c-49 -45
-95 -53 -150 -26 -77 37 -78 41 -78 361 0 311 2 323 63 360 18 11 50 20 72 20
22 0 54 -9 72 -20z m-2977 -553 c0 -111 17 -168 66 -225 106 -125 306 -127
414 -5 53 60 70 117 70 230 l0 93 1040 0 1040 0 0 -93 c0 -113 17 -170 70
-230 108 -122 308 -120 414 5 49 57 66 114 66 225 l0 93 298 0 c277 0 299 -1
329 -20 62 -38 63 -41 63 -440 l0 -360 -2280 0 -2280 0 0 364 c0 361 0 363 23
397 39 58 44 59 370 59 l297 0 0 -93z m3870 -2382 c0 -1663 5 -1544 -63 -1585
-31 -20 -68 -20 -2215 -20 -2412 0 -2221 -5 -2262 63 -20 31 -20 62 -20 1540
l0 1507 2280 0 2280 0 0 -1505z"/>
<path d="M1810 3022 c-19 -9 -45 -32 -57 -51 -22 -33 -23 -42 -23 -253 0 -245
6 -274 62 -308 31 -18 50 -20 263 -20 334 0 325 -9 325 328 0 211 -1 220 -23
253 -42 63 -67 69 -302 69 -180 0 -215 -3 -245 -18z m430 -307 l0 -185 -185 0
-185 0 0 185 0 185 185 0 185 0 0 -185z"/>
<path d="M2820 3022 c-19 -9 -45 -32 -57 -51 -22 -33 -23 -42 -23 -253 0 -245
6 -274 62 -308 31 -18 50 -20 263 -20 334 0 325 -9 325 328 0 211 -1 220 -23
253 -42 63 -67 69 -302 69 -180 0 -215 -3 -245 -18z m430 -312 l0 -190 -185 0
-185 0 0 190 0 190 185 0 185 0 0 -190z"/>
<path d="M3821 3022 c-19 -9 -44 -30 -55 -45 -20 -26 -21 -44 -24 -253 -3
-214 -2 -226 18 -263 39 -69 50 -71 307 -71 333 0 323 -10 323 325 0 256 -4
271 -72 306 -33 17 -60 19 -250 19 -183 0 -218 -2 -247 -18z m437 -309 l-3
-188 -187 -3 -188 -2 0 190 0 190 190 0 190 0 -2 -187z"/>
<path d="M793 2141 c-59 -37 -63 -55 -63 -307 0 -331 -7 -324 322 -324 234 0
260 5 302 63 20 26 21 44 24 249 3 240 1 256 -49 304 l-30 29 -237 3 c-221 2
-239 1 -269 -17z m447 -306 l0 -185 -190 0 -190 0 0 185 0 185 190 0 190 0 0
-185z"/>
<path d="M1794 2141 c-60 -37 -65 -65 -62 -320 3 -229 3 -229 28 -256 49 -53
62 -55 297 -55 243 0 262 4 303 72 18 30 20 51 20 251 0 244 -5 270 -65 307
-30 19 -49 20 -261 20 -206 0 -232 -2 -260 -19z m446 -306 l0 -185 -185 0
-185 0 0 185 0 185 185 0 185 0 0 -185z"/>
<path d="M2804 2141 c-58 -35 -64 -64 -64 -308 0 -243 4 -262 72 -303 30 -18
51 -20 253 -20 202 0 223 2 253 20 68 41 72 60 72 303 0 336 9 327 -325 327
-207 0 -233 -2 -261 -19z m446 -306 l0 -185 -185 0 -185 0 0 185 0 185 185 0
185 0 0 -185z"/>
<path d="M3824 2150 c-26 -10 -72 -65 -80 -94 -3 -12 -4 -119 -2 -238 3 -201
5 -219 24 -245 42 -58 68 -63 302 -63 239 0 265 6 302 65 19 30 20 49 20 261
0 334 10 324 -322 323 -123 0 -232 -4 -244 -9z m436 -315 l0 -185 -190 0 -190
0 0 185 0 185 190 0 190 0 0 -185z"/>
<path d="M825 1280 c-17 -5 -44 -23 -60 -40 l-30 -31 0 -249 0 -249 30 -31
c44 -45 84 -52 309 -48 180 3 205 5 235 23 65 39 71 63 71 305 0 326 2 324
-315 327 -116 1 -224 -2 -240 -7z m415 -320 l0 -190 -187 2 -188 3 -3 175 c-1
96 0 180 2 187 4 10 49 13 191 13 l185 0 0 -190z"/>
<path d="M1832 1281 c-18 -5 -42 -17 -53 -27 -46 -41 -49 -61 -49 -296 0 -203
2 -226 20 -255 40 -66 49 -68 305 -68 256 0 265 2 305 68 18 29 20 52 20 257
0 205 -2 228 -20 257 -39 65 -52 68 -285 70 -115 1 -225 -2 -243 -6z m408
-321 l0 -190 -185 0 -185 0 0 190 0 190 185 0 185 0 0 -190z"/>
<path d="M2842 1281 c-18 -5 -42 -17 -53 -27 -46 -41 -49 -61 -49 -296 0 -203
2 -226 20 -255 40 -66 49 -68 305 -68 256 0 265 2 305 68 18 29 20 52 20 257
0 205 -2 228 -20 257 -39 65 -52 68 -285 70 -115 1 -225 -2 -243 -6z m408
-321 l0 -190 -185 0 -185 0 0 190 0 190 185 0 185 0 0 -190z"/>
</g>
</svg>
