<?xml version="1.0" standalone="no"?>
<!DOCTYPE svg PUBLIC "-//W3C//DTD SVG 20010904//EN"
 "http://www.w3.org/TR/2001/REC-SVG-20010904/DTD/svg10.dtd">
<svg xmlns="http://www.w3.org/2000/svg" version="1.0" width="420.000000pt" height="420.000000pt" viewBox="0 0 420.000000 420.000000" preserveAspectRatio="xMidYMid meet">

<g transform="translate(0.000000,436.000000)scale(0.100000,-0.100000)" fill="#000000" stroke="none">
<path d="M2385 4081 c-104 -28 -187 -98 -230 -192 -25 -55 -27 -70 -23 -148 3 -71 9 -95 33 -139 94 -174 308 -229 473 -122 215 139 197 458 -33 571 -68 33 -161 46 -220 30z" fill="#f2b077"/>
<path d="M2038 3445 c-257 -95 -502 -310 -633 -558 -97 -182 -138 -347 -139 -557 0 -134 19 -290 34 -273 4 4 16 33 25 63 70 216 228 433 420 578 143 107 358 195 545 223 125 18 342 7 460 -24 391 -102 713 -398 838 -770 l30 -89 12 49 c20 85 24 327 6 429 -66 379 -293 694 -625 867 -47 24 -109 53 -138 62 l-52 19 -43 -40 c-53 -48 -101 -79 -159 -100 -161 -58 -348 -22 -467 90 -53 50 -59 51 -114 31z" fill="#Bf6068"/>
<path d="M393 1742 c-103 -37 -169 -98 -216 -202 -15 -33 -20 -66 -21 -122 0 -65 5 -85 32 -140 40 -82 111 -149 189 -178 73 -28 183 -24 255 7 66 30 133 95 168 166 26 52 30 71 30 143 0 67 -5 95 -24 138 -69 155 -261 242 -413 188z" fill="#61a7af"/>
<path d="M1385 3166 c-305 -111 -568 -355 -697 -646 -74 -169 -114 -384 -101 -555 6 -87 18 -110 64 -120 43 -10 140 -76 183 -126 86 -99 129 -246 107 -367 -7 -37 -17 -81 -23 -98 -9 -25 -8 -36 5 -54 36 -52 232 -198 332 -247 62 -31 172 -70 265 -94 71 -18 114 -22 255 -23 188 -1 259 9 395 56 147 51 361 176 349 203 -2 6 -64 9 -164 7 -132 -3 -178 0 -263 18 -316 64 -581 238 -753 494 -249 369 -275 822 -73 1220 55 107 109 183 196 272 43 44 75 84 71 87 -13 14 -60 5 -148 -27z" fill="#f2b077"/>
<path d="M3493 1242 c-131 -47 -213 -164 -213 -306 0 -95 25 -159 87 -226 72 -78 132 -104 238 -105 136 0 238 62 297 183 29 59 33 76 33 147 -1 96 -22 151 -86 220 -64 69 -126 98 -224 102 -60 3 -93 -1 -132 -15z" fill="#Bf6068"/>
<path d="M2771 2718 c301 -359 369 -861 173 -1277 -168 -357 -490 -608 -867 -675 -175 -32 -344 -29 -485 8 -66 18 -61 10 42 -68 369 -283 846 -331 1261 -126 66 32 154 85 195 118 83 64 81 60 62 172 -40 225 128 465 359 514 24 5 27 11 37 88 72 510 -187 1012 -638 1238 -57 29 -182 80 -195 80 -3 0 22 -33 56 -72z" fill="#61a7af"/>
</g>
</svg>
